<svg width="1440" height="743" viewBox="0 0 1440 743" fill="none" xmlns="http://www.w3.org/2000/svg">
<path d="M0.000144958 201.924C-52.5 193.5 -47.9998 126.03 58.5002 105.5C141.5 89.5 185.5 126.5 185.5 126.5C185.5 126.5 168.104 76.7045 244 43.5C300 19 350 40.4999 364.5 79.5C364.849 80.4373 366 63.5 384.5 69.4999C385.845 69.9362 362.5 33 428.5 5.00001C450.924 -4.51328 482 2.1725 494 5.00001C548.5 17.8415 539.5 59 539.5 59C539.5 59 597.5 24 680.5 40.4999C773.562 59 801 128 801 128C801 128 806 116 819.5 123C839.5 98.5 919.534 52.9835 1052.5 81.5C1206.81 114.594 1232.59 231.502 1236.27 283.611C1239.99 253.205 1259.93 204.93 1347 193.5C1476.5 176.5 1495.5 274 1500 284C1504.5 294 1504.5 289.269 1504.5 319V332V743H0.000144958V201.924Z" fill="#5FB5F1"/>
</svg>
